<svg version="1.1" id="Layer_1" xmlns="http://www.w3.org/2000/svg" xmlns:xlink="http://www.w3.org/1999/xlink" x="0px" y="0px"
	 viewBox="0 0 623.6 182.7" style="enable-background:new 0 0 623.6 182.7;" xml:space="preserve">
<style type="text/css">
	.st0{fill:#3b1500;}
</style>
<path class="st0" d="M0,0v182.7h623.6V0H0z M615.2,174.3H8.4V8.4h606.8V174.3z"/>
<g>
	<polygon class="st0" points="122.2,117.6 122.2,64.5 130.7,64.5 130.7,109.2 153.3,109.2 153.3,117.6 	"/>
	<polygon class="st0" points="65.6,117.6 65.6,64.5 97.1,64.5 97.1,72.9 74,72.9 74,86.1 95.2,86.1 95.2,94.5 74,94.5 74,117.6 	"/>
	<path class="st0" d="M197.2,118.1c-14.9,0-27-12.1-27-27c0-14.9,12.1-27,27-27s27,12.1,27,27C224.2,105.9,212.1,118.1,197.2,118.1z
		 M197.2,72.5c-10.3,0-18.6,8.3-18.6,18.6c0,10.2,8.3,18.6,18.6,18.6c10.3,0,18.6-8.3,18.6-18.6C215.8,80.8,207.5,72.5,197.2,72.5z"
		/>
	<polygon class="st0" points="329.4,117.6 329.4,64.5 360.9,64.5 360.9,72.9 337.8,72.9 337.8,86.1 359,86.1 359,94.5 337.8,94.5 
		337.8,109.2 360.9,109.2 360.9,117.6 	"/>
	<polygon class="st0" points="547.6,117.6 533.2,97.6 518.8,117.6 508.5,117.6 528.1,90.4 509.4,64.5 519.8,64.5 533.2,83.2 
		546.7,64.5 557.1,64.5 538.4,90.4 558,117.6 	"/>
	<polygon class="st0" points="272.8,95.8 262,118.6 238.2,64.5 246.8,64.5 262.2,100.4 268.6,86.9 258,64.5 266.6,64.5 272.8,77.8 
		279,64.5 287.6,64.5 277,86.9 283.3,100.4 298.9,64.5 307.4,64.5 283.6,118.6 	"/>
	<path class="st0" d="M418.9,117.6L398,89.8v27.8h-8.4V64.5h19.2c8.2,0,14.9,6.7,14.9,15c0,7.1-5.1,13.3-11.9,14.3L411,94l18.1,23.7
		H418.9z M398,86h11.4c3.4-0.4,5.9-3.1,5.9-6.5c0-3.6-2.9-6.6-6.5-6.6H398V86z"/>
	<path class="st0" d="M452.4,117.6V64.5h18.3c4.7,0,8.3,1.2,11.1,3.8c2.9,2.6,4.5,6.4,4.5,10.4c0,2-0.5,4-1.5,5.9
		c-1.3,2.3-2.9,3.3-2.9,3.3l-0.7,0.4l0.7,0.4c1.7,0.9,3.4,2.6,4.6,4.6c0.2,0.3,0.4,0.6,0.5,0.9l0.1,0.3c0.3,0.6,0.5,1.1,0.7,1.6
		l0,0.1c0.2,0.5,0.4,1.1,0.5,1.6c0.2,0.6,0.3,1.2,0.3,1.7l0,0.1c0.1,0.6,0.1,1.2,0.1,1.7c0,4.9-2.2,9.5-6,12.5
		c-3,2.5-6.7,3.6-11.8,3.6H452.4z M460.9,109.2h9.1c3.9,0,6.3-0.7,8-2.5c1.5-1.5,2.2-3.5,2.2-5.6c0-2-0.8-4-2.3-5.5
		c-1.7-1.7-4.1-2.5-8-2.5h-9.1V109.2z M460.9,84.9h8.6c3.5,0,5.4-0.6,6.6-1.9c1.1-1.1,1.6-2.5,1.6-4.1c0-1.5-0.6-2.9-1.6-4.1
		c-1.2-1.4-3.1-1.9-6.6-1.9h-8.6V84.9z"/>
</g>
</svg>