<svg id="Layer_1" data-name="Layer 1" xmlns="http://www.w3.org/2000/svg" viewBox="0 0 600 400" preserveAspectRatio="none"><defs><style>.cls-1{fill:#6c2b7f;stroke:#6c2b7f;}.cls-1,.cls-10,.cls-11,.cls-12,.cls-13,.cls-14,.cls-15,.cls-16,.cls-17,.cls-18,.cls-19,.cls-2,.cls-20,.cls-21,.cls-22,.cls-23,.cls-24,.cls-25,.cls-26,.cls-27,.cls-28,.cls-29,.cls-3,.cls-30,.cls-31,.cls-32,.cls-33,.cls-34,.cls-35,.cls-36,.cls-37,.cls-38,.cls-39,.cls-4,.cls-40,.cls-41,.cls-42,.cls-43,.cls-44,.cls-45,.cls-46,.cls-47,.cls-48,.cls-49,.cls-5,.cls-50,.cls-51,.cls-52,.cls-53,.cls-54,.cls-55,.cls-56,.cls-57,.cls-58,.cls-59,.cls-6,.cls-60,.cls-61,.cls-62,.cls-63,.cls-64,.cls-65,.cls-66,.cls-67,.cls-68,.cls-69,.cls-7,.cls-70,.cls-71,.cls-72,.cls-73,.cls-74,.cls-75,.cls-76,.cls-77,.cls-78,.cls-79,.cls-8,.cls-80,.cls-81,.cls-82,.cls-83,.cls-84,.cls-85,.cls-86,.cls-87,.cls-88,.cls-9{stroke-width:1.51px;}.cls-2{fill:#73297f;stroke:#73297f;}.cls-3{fill:#662379;stroke:#662379;}.cls-4{fill:#641f78;stroke:#641f78;}.cls-5{fill:#6f2c81;stroke:#6f2c81;}.cls-6{fill:#67277b;stroke:#67277b;}.cls-7{fill:#65267b;stroke:#65267b;}.cls-8{fill:#722a80;stroke:#722a80;}.cls-9{fill:#682a7e;stroke:#682a7e;}.cls-10{fill:#662a7c;stroke:#662a7c;}.cls-11{fill:#6a297d;stroke:#6a297d;}.cls-12{fill:#6a2b7f;stroke:#6a2b7f;}.cls-13{fill:#6c2d82;stroke:#6c2d82;}.cls-14{fill:#642c7e;stroke:#642c7e;}.cls-15{fill:#662e80;stroke:#662e80;}.cls-16{fill:#682d81;stroke:#682d81;}.cls-17{fill:#692f83;stroke:#692f83;}.cls-18{fill:#62277c;stroke:#62277c;}.cls-19{fill:#60277c;stroke:#60277c;}.cls-20{fill:#652e81;stroke:#652e81;}.cls-21{fill:#673185;stroke:#673185;}.cls-22{fill:#6d2e82;stroke:#6d2e82;}.cls-23{fill:#693185;stroke:#693185;}.cls-24{fill:#622a7d;stroke:#622a7d;}.cls-25{fill:#642d7f;stroke:#642d7f;}.cls-26{fill:#612d80;stroke:#612d80;}.cls-27{fill:#6d2e83;stroke:#6d2e83;}.cls-28{fill:#602b7e;stroke:#602b7e;}.cls-29{fill:#5e2a7e;stroke:#5e2a7e;}.cls-30{fill:#633083;stroke:#633083;}.cls-31{fill:#5c2a7e;stroke:#5c2a7e;}.cls-32{fill:#602e81;stroke:#602e81;}.cls-33{fill:#643185;stroke:#643185;}.cls-34{fill:#673286;stroke:#673286;}.cls-35{fill:#612f82;stroke:#612f82;}.cls-36{fill:#623183;stroke:#623183;}.cls-37{fill:#643285;stroke:#643285;}.cls-38{fill:#693083;stroke:#693083;}.cls-39{fill:#5e2d7f;stroke:#5e2d7f;}.cls-40{fill:#5c2b7d;stroke:#5c2b7d;}.cls-41{fill:#623083;stroke:#623083;}.cls-42{fill:#5d2d7e;stroke:#5d2d7e;}.cls-43{fill:#5a297c;stroke:#5a297c;}.cls-44{fill:#6b2c81;stroke:#6b2c81;}.cls-45{fill:#59267b;stroke:#59267b;}.cls-46{fill:#643184;stroke:#643184;}.cls-47{fill:#613082;stroke:#613082;}.cls-48{fill:#5f2e80;stroke:#5f2e80;}.cls-49{fill:#682d80;stroke:#682d80;}.cls-50{fill:#692b7f;stroke:#692b7f;}.cls-51{fill:#5b2b7c;stroke:#5b2b7c;}.cls-52{fill:#5e2e7f;stroke:#5e2e7f;}.cls-53{fill:#59277a;stroke:#59277a;}.cls-54{fill:#5a2a7b;stroke:#5a2a7b;}.cls-55{fill:#58257a;stroke:#58257a;}.cls-56{fill:#5d2c7e;stroke:#5d2c7e;}.cls-57{fill:#602f81;stroke:#602f81;}.cls-58{fill:#5f2f80;stroke:#5f2f80;}.cls-59{fill:#582779;stroke:#582779;}.cls-60{fill:#582679;stroke:#582679;}.cls-61{fill:#5c2c7d;stroke:#5c2c7d;}.cls-62{fill:#592a7a;stroke:#592a7a;}.cls-63{fill:#592b7a;stroke:#592b7a;}.cls-64{fill:#5a2b7b;stroke:#5a2b7b;}.cls-65{fill:#562578;stroke:#562578;}.cls-66{fill:#5c2c7e;stroke:#5c2c7e;}.cls-67{fill:#552377;stroke:#552377;}.cls-68{fill:#562678;stroke:#562678;}.cls-69{fill:#572878;stroke:#572878;}.cls-70{fill:#572779;stroke:#572779;}.cls-71{fill:#63287c;stroke:#63287c;}.cls-72{fill:#64257b;stroke:#64257b;}.cls-73{fill:#5e2c7f;stroke:#5e2c7f;}.cls-74{fill:#5f297e;stroke:#5f297e;}.cls-75{fill:#542276;stroke:#542276;}.cls-76{fill:#59287a;stroke:#59287a;}.cls-77{fill:#562478;stroke:#562478;}.cls-78{fill:#572579;stroke:#572579;}.cls-79{fill:#521f75;stroke:#521f75;}.cls-80{fill:#5d287d;stroke:#5d287d;}.cls-81{fill:#5b287d;stroke:#5b287d;}.cls-82{fill:#5a267c;stroke:#5a267c;}.cls-83{fill:#61237a;stroke:#61237a;}.cls-84{fill:#531f76;stroke:#531f76;}.cls-85{fill:#542277;stroke:#542277;}.cls-86{fill:#621f78;stroke:#621f78;}.cls-87{fill:#5f247b;stroke:#5f247b;}.cls-88{fill:#572479;stroke:#572479;}</style></defs><title>triangles</title><path class="cls-1" d="M587,248l24,39,16-101Z"/><path class="cls-2" d="M544,325l77,127,50-105Z"/><path class="cls-3" d="M568-11l94,80L674,5Z"/><path class="cls-4" d="M638-96,568-11,674,5Z"/><path class="cls-5" d="M611,287l-67,38,127,22Z"/><path class="cls-6" d="M539,67l108,36,15-34Z"/><path class="cls-7" d="M568-11,539,67l123,2Z"/><path class="cls-8" d="M544,325l-26,89,103,38Z"/><path class="cls-9" d="M533,154l49,30,65-81Z"/><path class="cls-10" d="M539,67l-6,87,114-51Z"/><path class="cls-11" d="M582,184l45,2,20-83Z"/><path class="cls-12" d="M582,184l5,64,40-62Z"/><path class="cls-13" d="M587,248l-43,77,67-38Z"/><path class="cls-14" d="M512,92l21,62,6-87Z"/><path class="cls-15" d="M533,154l-57,84,106-54Z"/><path class="cls-16" d="M582,184,476,238l111,10Z"/><path class="cls-17" d="M476,238l68,87,43-77Z"/><path class="cls-18" d="M500,41l39,26,29-78Z"/><path class="cls-19" d="M468-4l32,45,68-52Z"/><path class="cls-20" d="M472,171l4,67,57-84Z"/><path class="cls-21" d="M476,238l-31,56,99,31Z"/><path class="cls-22" d="M452,369l66,45,26-89Z"/><path class="cls-23" d="M445,294l7,75,92-44Z"/><path class="cls-24" d="M500,41l12,51,27-25Z"/><path class="cls-25" d="M512,92l-40,79,61-17Z"/><path class="cls-26" d="M441,76l31,95,40-79Z"/><path class="cls-27" d="M452,369l-47,36,113,9Z"/><path class="cls-28" d="M500,41,441,76l71,16Z"/><path class="cls-29" d="M468-4,441,76l59-35Z"/><path class="cls-30" d="M472,171l-43,31,47,36Z"/><path class="cls-31" d="M391-3l50,79L468-4Z"/><path class="cls-32" d="M441,76l-62,85,93,10Z"/><path class="cls-33" d="M429,202l16,92,31-56Z"/><path class="cls-34" d="M445,294l-49,30,56,45Z"/><path class="cls-35" d="M379,161l50,41,43-31Z"/><path class="cls-36" d="M323,216l73,108,33-122Z"/><path class="cls-37" d="M429,202,396,324l49-30Z"/><path class="cls-38" d="M396,324l9,81,47-36Z"/><path class="cls-39" d="M330,72l49,89,62-85Z"/><path class="cls-17" d="M396,324l-32,54,41,27Z"/><path class="cls-40" d="M391-3,330,72l111,4Z"/><path class="cls-41" d="M323,216l-17,23,90,85Z"/><path class="cls-35" d="M379,161l-56,55,106-14Z"/><path class="cls-42" d="M330,72l-1,72,50,17Z"/><path class="cls-43" d="M330,1V72L391-3Z"/><path class="cls-44" d="M364,378l-46,72,87-45Z"/><path class="cls-45" d="M336-75,330,1l61-4Z"/><path class="cls-46" d="M291,247l73,131,32-54Z"/><path class="cls-47" d="M306,239l-15,8,105,77Z"/><path class="cls-30" d="M291,247l-63,96,136,35Z"/><path class="cls-48" d="M329,144l-6,72,56-55Z"/><path class="cls-49" d="M228,343l90,107,46-72Z"/><path class="cls-50" d="M228,343l63,115,27-8Z"/><path class="cls-51" d="M256,71l-22,47,95,26Z"/><path class="cls-52" d="M265,183l58,33,6-72Z"/><path class="cls-53" d="M261-16l-5,87L330,1Z"/><path class="cls-54" d="M330,1,256,71l74,1Z"/><path class="cls-40" d="M256,71l73,73,1-72Z"/><path class="cls-55" d="M261-16,330,1l6-76Z"/><path class="cls-56" d="M234,118l31,65,64-39Z"/><path class="cls-57" d="M211,313l17,30,63-96Z"/><path class="cls-58" d="M265,183l41,56,17-23Z"/><path class="cls-48" d="M265,183l26,64,15-8Z"/><path class="cls-9" d="M228,343l-68,99,131,16Z"/><path class="cls-52" d="M265,183l-85,95,111-31Z"/><path class="cls-57" d="M180,278l31,35,80-66Z"/><path class="cls-59" d="M190-22,170,62l86,9Z"/><path class="cls-60" d="M190-22l66,93,5-87Z"/><path class="cls-56" d="M211,168,180,278l85-95Z"/><path class="cls-61" d="M234,118l-23,50,54,15Z"/><path class="cls-51" d="M203,135l8,33,23-50Z"/><path class="cls-62" d="M170,62l64,56,22-47Z"/><path class="cls-10" d="M145,429l15,13,68-99Z"/><path class="cls-14" d="M145,341v88l83-86Z"/><path class="cls-63" d="M170,62l33,73,31-17Z"/><path class="cls-26" d="M211,313l-66,28,83,2Z"/><path class="cls-40" d="M97,180l83,98,31-110Z"/><path class="cls-54" d="M117,150,97,180l114-12Z"/><path class="cls-64" d="M203,135l-86,15,94,18Z"/><path class="cls-48" d="M180,278l-35,63,66-28Z"/><path class="cls-65" d="M111,18l59,44,20-84Z"/><path class="cls-62" d="M170,62l-53,88,86-15Z"/><path class="cls-66" d="M97,180l28,116,55-18Z"/><path class="cls-48" d="M125,296l20,45,35-63Z"/><path class="cls-67" d="M105-32l6,50,79-40Z"/><path class="cls-68" d="M111,18,40,62l77,88Z"/><path class="cls-69" d="M111,18l6,132,53-88Z"/><path class="cls-70" d="M40,62l33,86,44,2Z"/><path class="cls-71" d="M31,370l114,59V341Z"/><path class="cls-40" d="M97,180,63,304l62-8Z"/><path class="cls-72" d="M31,370l3,54,111,5Z"/><path class="cls-73" d="M125,296l-62,8,82,37Z"/><path class="cls-74" d="M63,304,31,370l114-29Z"/><path class="cls-43" d="M0,232l63,72L97,180Z"/><path class="cls-75" d="M105-32,74-22l37,40Z"/><path class="cls-76" d="M73,148l24,32,20-30Z"/><path class="cls-75" d="M74-22,40,62l71-44Z"/><path class="cls-53" d="M73,148,0,232l97-52Z"/><path class="cls-77" d="M40,62l-85,68L73,148Z"/><path class="cls-78" d="M-45,130,0,232l73-84Z"/><path class="cls-79" d="M-36-42,40,62,74-22Z"/><path class="cls-80" d="M-12,317l43,53,32-66Z"/><path class="cls-81" d="M0,232l-12,85,75-13Z"/><path class="cls-82" d="M-34,253l22,64L0,232Z"/><path class="cls-83" d="M31,370l-87,21,90,33Z"/><path class="cls-84" d="M-36-42-65,85,40,62Z"/><path class="cls-85" d="M-65,85l20,45L40,62Z"/><path class="cls-86" d="M-56,391l-25,77L34,424Z"/><path class="cls-87" d="M-12,317l-44,74,87-21Z"/><path class="cls-55" d="M-68,228l34,25L0,232Z"/><path class="cls-88" d="M-45,130l-23,98,68,4Z"/></svg>
